<?xml version="1.0" encoding="UTF-8" standalone="no"?>
<!DOCTYPE svg PUBLIC "-//W3C//DTD SVG 1.1//EN"
 "http://www.w3.org/Graphics/SVG/1.1/DTD/svg11.dtd">
<!-- Generated by graphviz version 5.0.0 (20220707.1540)
 -->
<!-- Title: StorageDiagram Pages: 1 -->
<svg width="2211pt" height="762pt"
 viewBox="0.00 0.00 2211.11 761.60" xmlns="http://www.w3.org/2000/svg" xmlns:xlink="http://www.w3.org/1999/xlink">
<g id="graph0" class="graph" transform="scale(1 1) rotate(0) translate(4 757.6)">
<title>StorageDiagram</title>
<polygon fill="white" stroke="transparent" points="-4,4 -4,-757.6 2207.11,-757.6 2207.11,4 -4,4"/>
<!-- 6 -->
<g id="node1" class="node">
<title>6</title>
<polygon fill="#f2f2f2" stroke="black" points="0,-339.5 0,-513.1 952.14,-513.1 952.14,-339.5 0,-339.5"/>
<text text-anchor="middle" x="476.07" y="-496.5" font-family="Courier New" font-size="14.00">Store &lt;&lt;Contract&gt;&gt;</text>
<polyline fill="none" stroke="black" points="0,-488.3 952.14,-488.3 "/>
<text text-anchor="middle" x="24.8" y="-471.7" font-family="Courier New" font-size="14.00">slot</text>
<polyline fill="none" stroke="black" points="0,-463.5 49.61,-463.5 "/>
<text text-anchor="middle" x="24.8" y="-446.9" font-family="Courier New" font-size="14.00">0</text>
<polyline fill="none" stroke="black" points="0,-438.7 49.61,-438.7 "/>
<text text-anchor="middle" x="24.8" y="-422.1" font-family="Courier New" font-size="14.00">1</text>
<polyline fill="none" stroke="black" points="0,-413.9 49.61,-413.9 "/>
<text text-anchor="middle" x="24.8" y="-397.3" font-family="Courier New" font-size="14.00">2&#45;41</text>
<polyline fill="none" stroke="black" points="0,-389.1 49.61,-389.1 "/>
<text text-anchor="middle" x="24.8" y="-372.5" font-family="Courier New" font-size="14.00">42</text>
<polyline fill="none" stroke="black" points="0,-364.3 49.61,-364.3 "/>
<text text-anchor="middle" x="24.8" y="-347.7" font-family="Courier New" font-size="14.00">43</text>
<polyline fill="none" stroke="black" points="49.61,-339.5 49.61,-488.3 "/>
<text text-anchor="middle" x="500.87" y="-471.7" font-family="Courier New" font-size="14.00">type: &lt;inherited contract&gt;.variable (bytes)</text>
<polyline fill="none" stroke="black" points="49.61,-463.5 952.14,-463.5 "/>
<text text-anchor="middle" x="500.62" y="-446.9" font-family="Courier New" font-size="14.00">uint256: number (32)</text>
<polyline fill="none" stroke="black" points="49.61,-438.7 952.14,-438.7 "/>
<text text-anchor="middle" x="500.63" y="-422.1" font-family="Courier New" font-size="14.00">mapping(address=&gt;uint256): balances (32)</text>
<polyline fill="none" stroke="black" points="49.61,-413.9 952.14,-413.9 "/>
<text text-anchor="middle" x="500.83" y="-397.3" font-family="Courier New" font-size="14.00">payments[8]: topPayments (1280)</text>
<polyline fill="none" stroke="black" points="49.61,-389.1 952.14,-389.1 "/>
<text text-anchor="middle" x="268.82" y="-372.5" font-family="Courier New" font-size="14.00">unallocated (12)</text>
<polyline fill="none" stroke="black" points="488.03,-364.3 488.03,-389.1 "/>
<text text-anchor="middle" x="719.84" y="-372.5" font-family="Courier New" font-size="14.00">address: admin (20)</text>
<polyline fill="none" stroke="black" points="49.61,-364.3 952.14,-364.3 "/>
<text text-anchor="middle" x="120.62" y="-347.7" font-family="Courier New" font-size="14.00">unallocated (8)</text>
<polyline fill="none" stroke="black" points="191.63,-339.5 191.63,-364.3 "/>
<text text-anchor="middle" x="266.84" y="-347.7" font-family="Courier New" font-size="14.00">uint8: index (1)</text>
<polyline fill="none" stroke="black" points="342.05,-339.5 342.05,-364.3 "/>
<text text-anchor="middle" x="413.06" y="-347.7" font-family="Courier New" font-size="14.00">bool: flag3 (1)</text>
<polyline fill="none" stroke="black" points="484.07,-339.5 484.07,-364.3 "/>
<text text-anchor="middle" x="555.08" y="-347.7" font-family="Courier New" font-size="14.00">bool: flag2 (1)</text>
<polyline fill="none" stroke="black" points="626.09,-339.5 626.09,-364.3 "/>
<text text-anchor="middle" x="697.1" y="-347.7" font-family="Courier New" font-size="14.00">bool: flag1 (1)</text>
<polyline fill="none" stroke="black" points="768.11,-339.5 768.11,-364.3 "/>
<text text-anchor="middle" x="860.12" y="-347.7" font-family="Courier New" font-size="14.00">address: admin2 (20)</text>
</g>
<!-- 5 -->
<g id="node6" class="node">
<title>5</title>
<polygon fill="#f2f2f2" stroke="black" points="988.14,-314.5 988.14,-488.1 1289.78,-488.1 1289.78,-314.5 988.14,-314.5"/>
<text text-anchor="middle" x="1138.96" y="-471.5" font-family="Courier New" font-size="14.00">payments[8]: topPayments &lt;&lt;Array&gt;&gt;</text>
<polyline fill="none" stroke="black" points="988.14,-463.3 1289.78,-463.3 "/>
<text text-anchor="middle" x="1027.64" y="-446.7" font-family="Courier New" font-size="14.00">slot</text>
<polyline fill="none" stroke="black" points="988.14,-438.5 1067.14,-438.5 "/>
<text text-anchor="middle" x="1027.64" y="-421.9" font-family="Courier New" font-size="14.00">2&#45;6</text>
<polyline fill="none" stroke="black" points="988.14,-413.7 1067.14,-413.7 "/>
<text text-anchor="middle" x="1027.64" y="-397.1" font-family="Courier New" font-size="14.00">7&#45;12</text>
<polyline fill="none" stroke="black" points="988.14,-388.9 1067.14,-388.9 "/>
<text text-anchor="middle" x="1027.64" y="-372.3" font-family="Courier New" font-size="14.00">12&#45;32</text>
<polyline fill="none" stroke="black" points="988.14,-364.1 1067.14,-364.1 "/>
<text text-anchor="middle" x="1027.64" y="-347.5" font-family="Courier New" font-size="14.00">32&#45;37</text>
<polyline fill="none" stroke="black" points="988.14,-339.3 1067.14,-339.3 "/>
<text text-anchor="middle" x="1027.64" y="-322.7" font-family="Courier New" font-size="14.00">37&#45;42</text>
<polyline fill="none" stroke="black" points="1067.14,-314.5 1067.14,-463.3 "/>
<text text-anchor="middle" x="1178.06" y="-446.7" font-family="Courier New" font-size="14.00">type: variable (bytes)</text>
<polyline fill="none" stroke="black" points="1067.14,-438.5 1288.97,-438.5 "/>
<text text-anchor="middle" x="1177.95" y="-421.9" font-family="Courier New" font-size="14.00">payments (160)</text>
<polyline fill="none" stroke="black" points="1067.14,-413.7 1288.97,-413.7 "/>
<text text-anchor="middle" x="1177.95" y="-397.1" font-family="Courier New" font-size="14.00">payments (160)</text>
<polyline fill="none" stroke="black" points="1067.14,-388.9 1288.97,-388.9 "/>
<text text-anchor="middle" x="1177.65" y="-372.3" font-family="Courier New" font-size="14.00">&#45;&#45;&#45;&#45; (672)</text>
<polyline fill="none" stroke="black" points="1067.14,-364.1 1288.97,-364.1 "/>
<text text-anchor="middle" x="1177.95" y="-347.5" font-family="Courier New" font-size="14.00">payments (160)</text>
<polyline fill="none" stroke="black" points="1067.14,-339.3 1288.97,-339.3 "/>
<text text-anchor="middle" x="1177.95" y="-322.7" font-family="Courier New" font-size="14.00">payments (160)</text>
</g>
<!-- 6&#45;&gt;5 -->
<g id="edge1" class="edge">
<title>6:40&#45;&gt;5</title>
<path fill="none" stroke="black" d="M952.14,-401.3C960.54,-401.3 969.16,-401.3 977.86,-401.3"/>
<polygon fill="black" stroke="black" points="978.11,-404.8 988.11,-401.3 978.11,-397.8 978.11,-404.8"/>
</g>
<!-- 1 -->
<g id="node2" class="node">
<title>1</title>
<polygon fill="#f2f2f2" stroke="black" points="1325.78,-579.5 1325.78,-753.1 2203.11,-753.1 2203.11,-579.5 1325.78,-579.5"/>
<text text-anchor="middle" x="1764.45" y="-736.5" font-family="Courier New" font-size="14.00">payments &lt;&lt;Struct&gt;&gt;</text>
<polyline fill="none" stroke="black" points="1325.78,-728.3 2203.11,-728.3 "/>
<text text-anchor="middle" x="1350.59" y="-711.7" font-family="Courier New" font-size="14.00">slot</text>
<polyline fill="none" stroke="black" points="1325.78,-703.5 1375.39,-703.5 "/>
<text text-anchor="middle" x="1350.59" y="-686.9" font-family="Courier New" font-size="14.00">2</text>
<polyline fill="none" stroke="black" points="1325.78,-678.7 1375.39,-678.7 "/>
<text text-anchor="middle" x="1350.59" y="-662.1" font-family="Courier New" font-size="14.00">3</text>
<polyline fill="none" stroke="black" points="1325.78,-653.9 1375.39,-653.9 "/>
<text text-anchor="middle" x="1350.59" y="-637.3" font-family="Courier New" font-size="14.00">4</text>
<polyline fill="none" stroke="black" points="1325.78,-629.1 1375.39,-629.1 "/>
<text text-anchor="middle" x="1350.59" y="-612.5" font-family="Courier New" font-size="14.00">5</text>
<polyline fill="none" stroke="black" points="1325.78,-604.3 1375.39,-604.3 "/>
<text text-anchor="middle" x="1350.59" y="-587.7" font-family="Courier New" font-size="14.00">6</text>
<polyline fill="none" stroke="black" points="1375.39,-579.5 1375.39,-728.3 "/>
<text text-anchor="middle" x="1789.25" y="-711.7" font-family="Courier New" font-size="14.00">type: variable (bytes)</text>
<polyline fill="none" stroke="black" points="1375.39,-703.5 2203.11,-703.5 "/>
<text text-anchor="middle" x="1788.9" y="-686.9" font-family="Courier New" font-size="14.00">uint256: amount (32)</text>
<polyline fill="none" stroke="black" points="1375.39,-678.7 2203.11,-678.7 "/>
<text text-anchor="middle" x="1788.91" y="-662.1" font-family="Courier New" font-size="14.00">uint256: finalAmount (32)</text>
<polyline fill="none" stroke="black" points="1375.39,-653.9 2203.11,-653.9 "/>
<text text-anchor="middle" x="1788.81" y="-637.3" font-family="Courier New" font-size="14.00">uint256: initialAmount (32)</text>
<polyline fill="none" stroke="black" points="1375.39,-629.1 2203.11,-629.1 "/>
<text text-anchor="middle" x="1446.4" y="-612.5" font-family="Courier New" font-size="14.00">unallocated (9)</text>
<polyline fill="none" stroke="black" points="1517.41,-604.3 1517.41,-629.1 "/>
<text text-anchor="middle" x="1609.42" y="-612.5" font-family="Courier New" font-size="14.00">address: sender (20)</text>
<polyline fill="none" stroke="black" points="1701.44,-604.3 1701.44,-629.1 "/>
<text text-anchor="middle" x="1780.85" y="-612.5" font-family="Courier New" font-size="14.00">bool: checked (1)</text>
<polyline fill="none" stroke="black" points="1860.26,-604.3 1860.26,-629.1 "/>
<text text-anchor="middle" x="1931.27" y="-612.5" font-family="Courier New" font-size="14.00">bool: valid (1)</text>
<polyline fill="none" stroke="black" points="2002.28,-604.3 2002.28,-629.1 "/>
<text text-anchor="middle" x="2102.7" y="-612.5" font-family="Courier New" font-size="14.00">uint8: paymentType (1)</text>
<polyline fill="none" stroke="black" points="1375.39,-604.3 2203.11,-604.3 "/>
<text text-anchor="middle" x="1569.6" y="-587.7" font-family="Courier New" font-size="14.00">unallocated (12)</text>
<polyline fill="none" stroke="black" points="1763.81,-579.5 1763.81,-604.3 "/>
<text text-anchor="middle" x="1983.23" y="-587.7" font-family="Courier New" font-size="14.00">address: receiver (20)</text>
</g>
<!-- 2 -->
<g id="node3" class="node">
<title>2</title>
<polygon fill="#f2f2f2" stroke="black" points="1325.78,-386.5 1325.78,-560.1 2203.11,-560.1 2203.11,-386.5 1325.78,-386.5"/>
<text text-anchor="middle" x="1764.45" y="-543.5" font-family="Courier New" font-size="14.00">payments &lt;&lt;Struct&gt;&gt;</text>
<polyline fill="none" stroke="black" points="1325.78,-535.3 2203.11,-535.3 "/>
<text text-anchor="middle" x="1350.59" y="-518.7" font-family="Courier New" font-size="14.00">slot</text>
<polyline fill="none" stroke="black" points="1325.78,-510.5 1375.39,-510.5 "/>
<text text-anchor="middle" x="1350.59" y="-493.9" font-family="Courier New" font-size="14.00">7</text>
<polyline fill="none" stroke="black" points="1325.78,-485.7 1375.39,-485.7 "/>
<text text-anchor="middle" x="1350.59" y="-469.1" font-family="Courier New" font-size="14.00">8</text>
<polyline fill="none" stroke="black" points="1325.78,-460.9 1375.39,-460.9 "/>
<text text-anchor="middle" x="1350.59" y="-444.3" font-family="Courier New" font-size="14.00">9</text>
<polyline fill="none" stroke="black" points="1325.78,-436.1 1375.39,-436.1 "/>
<text text-anchor="middle" x="1350.59" y="-419.5" font-family="Courier New" font-size="14.00">10</text>
<polyline fill="none" stroke="black" points="1325.78,-411.3 1375.39,-411.3 "/>
<text text-anchor="middle" x="1350.59" y="-394.7" font-family="Courier New" font-size="14.00">11</text>
<polyline fill="none" stroke="black" points="1375.39,-386.5 1375.39,-535.3 "/>
<text text-anchor="middle" x="1789.25" y="-518.7" font-family="Courier New" font-size="14.00">type: variable (bytes)</text>
<polyline fill="none" stroke="black" points="1375.39,-510.5 2203.11,-510.5 "/>
<text text-anchor="middle" x="1788.9" y="-493.9" font-family="Courier New" font-size="14.00">uint256: amount (32)</text>
<polyline fill="none" stroke="black" points="1375.39,-485.7 2203.11,-485.7 "/>
<text text-anchor="middle" x="1788.91" y="-469.1" font-family="Courier New" font-size="14.00">uint256: finalAmount (32)</text>
<polyline fill="none" stroke="black" points="1375.39,-460.9 2203.11,-460.9 "/>
<text text-anchor="middle" x="1788.81" y="-444.3" font-family="Courier New" font-size="14.00">uint256: initialAmount (32)</text>
<polyline fill="none" stroke="black" points="1375.39,-436.1 2203.11,-436.1 "/>
<text text-anchor="middle" x="1446.4" y="-419.5" font-family="Courier New" font-size="14.00">unallocated (9)</text>
<polyline fill="none" stroke="black" points="1517.41,-411.3 1517.41,-436.1 "/>
<text text-anchor="middle" x="1609.42" y="-419.5" font-family="Courier New" font-size="14.00">address: sender (20)</text>
<polyline fill="none" stroke="black" points="1701.44,-411.3 1701.44,-436.1 "/>
<text text-anchor="middle" x="1780.85" y="-419.5" font-family="Courier New" font-size="14.00">bool: checked (1)</text>
<polyline fill="none" stroke="black" points="1860.26,-411.3 1860.26,-436.1 "/>
<text text-anchor="middle" x="1931.27" y="-419.5" font-family="Courier New" font-size="14.00">bool: valid (1)</text>
<polyline fill="none" stroke="black" points="2002.28,-411.3 2002.28,-436.1 "/>
<text text-anchor="middle" x="2102.7" y="-419.5" font-family="Courier New" font-size="14.00">uint8: paymentType (1)</text>
<polyline fill="none" stroke="black" points="1375.39,-411.3 2203.11,-411.3 "/>
<text text-anchor="middle" x="1569.6" y="-394.7" font-family="Courier New" font-size="14.00">unallocated (12)</text>
<polyline fill="none" stroke="black" points="1763.81,-386.5 1763.81,-411.3 "/>
<text text-anchor="middle" x="1983.23" y="-394.7" font-family="Courier New" font-size="14.00">address: receiver (20)</text>
</g>
<!-- 3 -->
<g id="node4" class="node">
<title>3</title>
<polygon fill="#f2f2f2" stroke="black" points="1325.78,-193.5 1325.78,-367.1 2203.11,-367.1 2203.11,-193.5 1325.78,-193.5"/>
<text text-anchor="middle" x="1764.45" y="-350.5" font-family="Courier New" font-size="14.00">payments &lt;&lt;Struct&gt;&gt;</text>
<polyline fill="none" stroke="black" points="1325.78,-342.3 2203.11,-342.3 "/>
<text text-anchor="middle" x="1350.59" y="-325.7" font-family="Courier New" font-size="14.00">slot</text>
<polyline fill="none" stroke="black" points="1325.78,-317.5 1375.39,-317.5 "/>
<text text-anchor="middle" x="1350.59" y="-300.9" font-family="Courier New" font-size="14.00">32</text>
<polyline fill="none" stroke="black" points="1325.78,-292.7 1375.39,-292.7 "/>
<text text-anchor="middle" x="1350.59" y="-276.1" font-family="Courier New" font-size="14.00">33</text>
<polyline fill="none" stroke="black" points="1325.78,-267.9 1375.39,-267.9 "/>
<text text-anchor="middle" x="1350.59" y="-251.3" font-family="Courier New" font-size="14.00">34</text>
<polyline fill="none" stroke="black" points="1325.78,-243.1 1375.39,-243.1 "/>
<text text-anchor="middle" x="1350.59" y="-226.5" font-family="Courier New" font-size="14.00">35</text>
<polyline fill="none" stroke="black" points="1325.78,-218.3 1375.39,-218.3 "/>
<text text-anchor="middle" x="1350.59" y="-201.7" font-family="Courier New" font-size="14.00">36</text>
<polyline fill="none" stroke="black" points="1375.39,-193.5 1375.39,-342.3 "/>
<text text-anchor="middle" x="1789.25" y="-325.7" font-family="Courier New" font-size="14.00">type: variable (bytes)</text>
<polyline fill="none" stroke="black" points="1375.39,-317.5 2203.11,-317.5 "/>
<text text-anchor="middle" x="1788.9" y="-300.9" font-family="Courier New" font-size="14.00">uint256: amount (32)</text>
<polyline fill="none" stroke="black" points="1375.39,-292.7 2203.11,-292.7 "/>
<text text-anchor="middle" x="1788.91" y="-276.1" font-family="Courier New" font-size="14.00">uint256: finalAmount (32)</text>
<polyline fill="none" stroke="black" points="1375.39,-267.9 2203.11,-267.9 "/>
<text text-anchor="middle" x="1788.81" y="-251.3" font-family="Courier New" font-size="14.00">uint256: initialAmount (32)</text>
<polyline fill="none" stroke="black" points="1375.39,-243.1 2203.11,-243.1 "/>
<text text-anchor="middle" x="1446.4" y="-226.5" font-family="Courier New" font-size="14.00">unallocated (9)</text>
<polyline fill="none" stroke="black" points="1517.41,-218.3 1517.41,-243.1 "/>
<text text-anchor="middle" x="1609.42" y="-226.5" font-family="Courier New" font-size="14.00">address: sender (20)</text>
<polyline fill="none" stroke="black" points="1701.44,-218.3 1701.44,-243.1 "/>
<text text-anchor="middle" x="1780.85" y="-226.5" font-family="Courier New" font-size="14.00">bool: checked (1)</text>
<polyline fill="none" stroke="black" points="1860.26,-218.3 1860.26,-243.1 "/>
<text text-anchor="middle" x="1931.27" y="-226.5" font-family="Courier New" font-size="14.00">bool: valid (1)</text>
<polyline fill="none" stroke="black" points="2002.28,-218.3 2002.28,-243.1 "/>
<text text-anchor="middle" x="2102.7" y="-226.5" font-family="Courier New" font-size="14.00">uint8: paymentType (1)</text>
<polyline fill="none" stroke="black" points="1375.39,-218.3 2203.11,-218.3 "/>
<text text-anchor="middle" x="1569.6" y="-201.7" font-family="Courier New" font-size="14.00">unallocated (12)</text>
<polyline fill="none" stroke="black" points="1763.81,-193.5 1763.81,-218.3 "/>
<text text-anchor="middle" x="1983.23" y="-201.7" font-family="Courier New" font-size="14.00">address: receiver (20)</text>
</g>
<!-- 4 -->
<g id="node5" class="node">
<title>4</title>
<polygon fill="#f2f2f2" stroke="black" points="1325.78,-0.5 1325.78,-174.1 2203.11,-174.1 2203.11,-0.5 1325.78,-0.5"/>
<text text-anchor="middle" x="1764.45" y="-157.5" font-family="Courier New" font-size="14.00">payments &lt;&lt;Struct&gt;&gt;</text>
<polyline fill="none" stroke="black" points="1325.78,-149.3 2203.11,-149.3 "/>
<text text-anchor="middle" x="1350.59" y="-132.7" font-family="Courier New" font-size="14.00">slot</text>
<polyline fill="none" stroke="black" points="1325.78,-124.5 1375.39,-124.5 "/>
<text text-anchor="middle" x="1350.59" y="-107.9" font-family="Courier New" font-size="14.00">37</text>
<polyline fill="none" stroke="black" points="1325.78,-99.7 1375.39,-99.7 "/>
<text text-anchor="middle" x="1350.59" y="-83.1" font-family="Courier New" font-size="14.00">38</text>
<polyline fill="none" stroke="black" points="1325.78,-74.9 1375.39,-74.9 "/>
<text text-anchor="middle" x="1350.59" y="-58.3" font-family="Courier New" font-size="14.00">39</text>
<polyline fill="none" stroke="black" points="1325.78,-50.1 1375.39,-50.1 "/>
<text text-anchor="middle" x="1350.59" y="-33.5" font-family="Courier New" font-size="14.00">40</text>
<polyline fill="none" stroke="black" points="1325.78,-25.3 1375.39,-25.3 "/>
<text text-anchor="middle" x="1350.59" y="-8.7" font-family="Courier New" font-size="14.00">41</text>
<polyline fill="none" stroke="black" points="1375.39,-0.5 1375.39,-149.3 "/>
<text text-anchor="middle" x="1789.25" y="-132.7" font-family="Courier New" font-size="14.00">type: variable (bytes)</text>
<polyline fill="none" stroke="black" points="1375.39,-124.5 2203.11,-124.5 "/>
<text text-anchor="middle" x="1788.9" y="-107.9" font-family="Courier New" font-size="14.00">uint256: amount (32)</text>
<polyline fill="none" stroke="black" points="1375.39,-99.7 2203.11,-99.7 "/>
<text text-anchor="middle" x="1788.91" y="-83.1" font-family="Courier New" font-size="14.00">uint256: finalAmount (32)</text>
<polyline fill="none" stroke="black" points="1375.39,-74.9 2203.11,-74.9 "/>
<text text-anchor="middle" x="1788.81" y="-58.3" font-family="Courier New" font-size="14.00">uint256: initialAmount (32)</text>
<polyline fill="none" stroke="black" points="1375.39,-50.1 2203.11,-50.1 "/>
<text text-anchor="middle" x="1446.4" y="-33.5" font-family="Courier New" font-size="14.00">unallocated (9)</text>
<polyline fill="none" stroke="black" points="1517.41,-25.3 1517.41,-50.1 "/>
<text text-anchor="middle" x="1609.42" y="-33.5" font-family="Courier New" font-size="14.00">address: sender (20)</text>
<polyline fill="none" stroke="black" points="1701.44,-25.3 1701.44,-50.1 "/>
<text text-anchor="middle" x="1780.85" y="-33.5" font-family="Courier New" font-size="14.00">bool: checked (1)</text>
<polyline fill="none" stroke="black" points="1860.26,-25.3 1860.26,-50.1 "/>
<text text-anchor="middle" x="1931.27" y="-33.5" font-family="Courier New" font-size="14.00">bool: valid (1)</text>
<polyline fill="none" stroke="black" points="2002.28,-25.3 2002.28,-50.1 "/>
<text text-anchor="middle" x="2102.7" y="-33.5" font-family="Courier New" font-size="14.00">uint8: paymentType (1)</text>
<polyline fill="none" stroke="black" points="1375.39,-25.3 2203.11,-25.3 "/>
<text text-anchor="middle" x="1569.6" y="-8.7" font-family="Courier New" font-size="14.00">unallocated (12)</text>
<polyline fill="none" stroke="black" points="1763.81,-0.5 1763.81,-25.3 "/>
<text text-anchor="middle" x="1983.23" y="-8.7" font-family="Courier New" font-size="14.00">address: receiver (20)</text>
</g>
<!-- 5&#45;&gt;1 -->
<g id="edge2" class="edge">
<title>5:11&#45;&gt;1</title>
<path fill="none" stroke="black" d="M1289.78,-426.3C1355.32,-426.3 1278.78,-523.62 1325.78,-569.3 1326.87,-570.36 1327.97,-571.41 1329.08,-572.45"/>
<polygon fill="black" stroke="black" points="1326.74,-575.05 1336.51,-579.15 1331.43,-569.85 1326.74,-575.05"/>
</g>
<!-- 5&#45;&gt;2 -->
<g id="edge3" class="edge">
<title>5:12&#45;&gt;2</title>
<path fill="none" stroke="black" d="M1289.78,-401.3C1298.3,-401.3 1306.9,-401.42 1315.55,-401.64"/>
<polygon fill="black" stroke="black" points="1315.63,-405.14 1325.73,-401.94 1315.84,-398.14 1315.63,-405.14"/>
</g>
<!-- 5&#45;&gt;3 -->
<g id="edge4" class="edge">
<title>5:14&#45;&gt;3</title>
<path fill="none" stroke="black" d="M1289.78,-351.3C1298.3,-351.3 1306.89,-351.19 1315.54,-350.97"/>
<polygon fill="black" stroke="black" points="1315.83,-354.46 1325.72,-350.66 1315.62,-347.46 1315.83,-354.46"/>
</g>
<!-- 5&#45;&gt;4 -->
<g id="edge5" class="edge">
<title>5:15&#45;&gt;4</title>
<path fill="none" stroke="black" d="M1289.78,-327.3C1355.32,-327.3 1278.78,-229.98 1325.78,-184.3 1326.87,-183.24 1327.97,-182.19 1329.08,-181.15"/>
<polygon fill="black" stroke="black" points="1331.43,-183.75 1336.51,-174.45 1326.74,-178.55 1331.43,-183.75"/>
</g>
</g>
</svg>
